<?xml version="1.0" encoding="UTF-8" standalone="no"?>
<svg width="142px" height="64px" viewBox="0 0 142 64" version="1.1" xmlns="http://www.w3.org/2000/svg" xmlns:xlink="http://www.w3.org/1999/xlink">
    <!-- Generator: Sketch 48.2 (47327) - http://www.bohemiancoding.com/sketch -->
    <title>img_pupil_logo</title>
    <desc>Created with Sketch.</desc>
    <defs></defs>
    <g id="Logo" stroke="none" stroke-width="1" fill="none" fill-rule="evenodd">
        <g fill="#41395F" id="img_pupil_logo">
            <g>
                <path d="M130.41982,52.55528 L141.56682,52.55528 L141.56682,4.82568 L130.41982,4.82568 L130.41982,52.55528 Z M133.159303,50.06648 L138.827337,50.06648 L138.827337,7.31608 L133.159303,7.31608 L133.159303,50.06648 Z" id="Fill-1"></path>
                <path d="M109.225124,33.35664 C109.225124,22.86624 103.776472,16.08784 95.3426292,16.08784 C92.0471124,16.08784 89.0635169,17.12944 86.9422921,19.02144 L86.9079888,19.05104 L86.8409775,19.11104 L86.7963034,19.15104 L86.7723708,19.00304 L86.3958315,16.60304 L75.9388876,16.60304 L75.9388876,63.49584 L87.0858876,63.49584 L87.0858876,52.52704 L87.126573,52.53664 L87.1872022,52.55184 L87.2167191,52.55904 C87.2382584,52.56384 89.3515056,53.07104 91.235,53.07104 C96.6916292,53.07104 101.250787,51.22464 104.415472,47.73184 C107.562607,44.26064 109.225124,39.29024 109.225124,33.35664 Z M84.3464045,61.00624 L78.6799663,61.00624 L78.6799663,19.09264 L84.0759663,19.09264 L84.0799551,19.12064 L84.0847416,19.16224 L84.3456067,20.98944 L84.3464045,60.92384 L84.3464045,61.00624 Z M93.6218764,49.03584 C92.5504944,49.91184 91.235,50.33824 89.605191,50.33824 C88.8656742,50.33824 88.0455843,50.24544 87.1704494,50.06384 L87.1513034,50.05984 L87.1122135,50.05184 L87.0858876,50.04624 L87.0858876,22.11024 L87.0970562,22.10064 L87.113809,22.08624 L87.123382,22.07824 C88.5290225,20.87024 90.3622584,20.05744 91.6841348,20.05744 C93.639427,20.05744 95.0195393,21.25424 95.8986629,23.71584 C96.7618315,26.12784 97.1806517,29.87104 97.1806517,35.15824 C97.1806517,38.85024 96.9173933,41.72544 96.3773146,43.94944 C95.7989438,46.33104 94.8966854,47.99504 93.6218764,49.03584 Z M102.764921,45.58624 C100.317416,48.66624 97.402427,49.83344 95.8827079,50.25584 L95.772618,50.28624 L95.5508427,50.34784 L95.4032584,50.38864 L95.5213258,50.29024 L95.6992247,50.14384 L95.7877753,50.07024 C98.483382,47.83664 99.9903371,42.40224 99.9201348,35.15984 C99.8858315,30.21344 99.4901461,26.67824 98.6732472,24.03264 C97.7981124,21.19584 96.4004494,19.35184 94.3980899,18.39424 L94.3031573,18.34944 L94.1148876,18.25904 L93.9896404,18.19984 L94.1284494,18.19664 L94.3374607,18.19344 L94.4419663,18.19104 C94.513764,18.19024 94.584764,18.18944 94.6565618,18.18944 C97.5747416,18.18944 100.184989,19.23984 102.202506,21.22784 C104.965124,23.94864 106.48564,28.25664 106.48564,33.35664 C106.48564,38.36464 105.233169,42.47904 102.764921,45.58624 Z" id="Fill-2"></path>
                <path d="M35.2366618,21.5156 C35.2366618,16.6644 33.8621337,12.8324 31.1513697,10.126 C29.4218416,8.3988 27.1067629,7.0884 24.2723472,6.2308 C21.4722348,5.3836 18.0849764,4.954 14.2023135,4.954 C14.1257292,4.954 14.0507404,4.9548 13.9749539,4.9548 L0.796077528,4.9548 L0.796077528,52.5556 L12.3914146,52.5556 L12.3914146,37.8828 L12.4241225,37.8828 L12.4727854,37.8828 L12.4991112,37.8828 C12.5924483,37.8836 12.6873809,37.8836 12.7831112,37.8836 C21.6469427,37.8836 27.703482,36.1404 31.2949652,32.554 C32.6080663,31.242 33.6036618,29.6508 34.2562236,27.8252 C34.9063921,26.002 35.2366618,23.8796 35.2366618,21.5156 Z M3.53556067,50.002 L9.65272921,50.002 L9.65272921,7.5084 L3.53556067,7.5084 L3.53556067,50.002 Z M17.6549876,34.7764 C16.3634258,35.154 14.7240438,35.33 12.4975157,35.33 L12.3914146,35.33 L12.3914146,7.5084 L12.4975157,7.5084 C16.2916281,7.5084 19.170718,7.9588 20.8914708,10.1556 C22.4351225,12.1252 23.0645494,15.4164 23.0645494,21.5156 C23.0645494,27.5052 22.4415045,30.7404 20.9146056,32.6828 C20.1336056,33.6788 19.0662124,34.3636 17.6549876,34.7764 Z M22.5986618,34.6188 L22.5117067,34.6404 L22.3354034,34.6828 L22.2189315,34.7124 L22.304291,34.6276 L22.433527,34.5012 L22.4989427,34.4388 C24.0354146,32.938 25.8678528,29.478 25.8678528,21.5156 C25.8678528,15.0332 24.7645607,10.7212 22.4957517,8.3324 L22.436718,8.2708 L22.3202461,8.1468 L22.2404708,8.0644 L22.3513584,8.0924 L22.5164933,8.134 L22.5986618,8.1556 C29.0325382,9.7988 32.4333584,14.4188 32.4333584,21.5156 C32.4333584,28.6052 29.1242798,33.0132 22.5986618,34.6188 Z" id="Fill-10"></path>
                <path d="M119.08487,-0.0004 C115.17987,-0.0004 112.453151,2.6292 112.453151,6.3924 C112.453151,8.3212 113.090555,9.9812 114.299948,11.1924 C115.506151,12.4028 117.162285,13.0436 119.08487,13.0436 C122.926847,13.0436 125.716589,10.246 125.716589,6.3924 C125.716589,2.6884 122.926847,-0.0004 119.08487,-0.0004 M119.08487,10.4252 C116.755431,10.4252 115.127218,8.7668 115.127218,6.3924 C115.127218,5.3308 115.524499,4.358 116.242476,3.654 C116.967634,2.9444 117.976791,2.554 119.08487,2.554 C120.192948,2.554 121.202106,2.9444 121.927263,3.654 C122.646836,4.358 123.040926,5.3308 123.040926,6.3924 C123.040926,8.7668 121.414308,10.4252 119.08487,10.4252" id="Fill-7"></path>
                <path d="M113.673393,52.55608 L124.689562,52.55608 L124.689562,16.60328 L113.673393,16.60328 L113.673393,52.55608 Z M116.411281,50.00248 L121.950079,50.00248 L121.950079,19.09288 L116.411281,19.09288 L116.411281,50.00248 Z" id="Fill-4"></path>
                <path d="M59.1287202,45.93824 L59.1223382,45.94624 L59.1127652,45.95904 C57.8634843,47.80544 56.1028438,48.90784 54.4012371,48.90784 C52.9182146,48.90784 51.8619899,48.47904 51.1727315,47.59584 C50.467518,46.69024 50.1228888,45.27424 50.1228888,43.26704 L50.1228888,16.66704 L38.7860236,16.66704 L38.7860236,42.23744 C38.7860236,45.66384 39.7361472,48.35824 41.6092708,50.24624 C43.5135067,52.16304 46.2633607,53.13504 49.7798551,53.13504 C53.4886079,53.13504 56.657282,51.92144 58.9460348,49.62704 L58.9883157,49.58464 L59.0728775,49.50064 L59.1287202,49.44464 L59.1287202,52.62064 L70.4017652,52.62064 L70.4017652,16.66704 L59.1287202,16.66704 L59.1287202,45.93824 Z M51.7008438,50.72144 L51.5030011,50.75504 L51.403282,50.77264 C50.7012596,50.89424 50.0135966,50.95584 49.3610348,50.95584 C47.3259674,50.95584 45.6123944,50.37984 44.2657876,49.24304 C42.4724393,47.72784 41.5255067,45.30544 41.5255067,42.23744 L41.5255067,19.15664 L47.3834056,19.15664 L47.3834056,43.26704 C47.3834056,45.22384 47.7392034,46.84944 48.4372371,48.09744 C49.1256978,49.32544 50.1276753,50.15584 51.4176416,50.56624 L51.5125742,50.59664 L51.7056303,50.65744 L51.8332708,50.69824 L51.7008438,50.72144 Z M61.8666079,50.13104 L67.6630798,50.13104 L67.6630798,19.15664 L61.8666079,19.15664 L61.8666079,50.13104 Z" id="Fill-5"></path>
            </g>
        </g>
    </g>
</svg>